<?xml version="1.0" standalone="no"?>
<!DOCTYPE svg PUBLIC "-//W3C//DTD SVG 20010904//EN"
 "http://www.w3.org/TR/2001/REC-SVG-20010904/DTD/svg10.dtd">
<svg version="1.0" xmlns="http://www.w3.org/2000/svg"
 width="874.000000pt" height="1179.000000pt" viewBox="0 0 874.000000 1179.000000"
 preserveAspectRatio="xMidYMid meet">
<metadata>
Created by potrace 1.16, written by Peter Selinger 2001-2019
</metadata>
<g transform="translate(0.000000,1179.000000) scale(0.100000,-0.100000)"
fill="#000000" stroke="none">
<path d="M190 11756 c-66 -48 -133 -127 -164 -191 l-26 -56 0 -5593 0 -5593
35 -70 c44 -89 130 -172 222 -216 l68 -32 4045 0 4045 0 68 32 c92 44 178 127
222 216 l35 70 0 5594 0 5594 -31 61 c-34 68 -102 146 -166 189 l-42 29 -4133
0 -4133 0 -45 -34z m7660 -5546 l0 -4720 -3480 0 -3480 0 0 4720 0 4720 3480
0 3480 0 0 -4720z m-3241 -5119 c163 -51 282 -188 313 -361 48 -277 -225 -550
-502 -502 -298 53 -463 360 -337 626 55 116 154 201 282 242 61 19 174 17 244
-5z"/>
</g>
</svg>
