<?xml version="1.0" standalone="no"?>
<!DOCTYPE svg PUBLIC "-//W3C//DTD SVG 20010904//EN"
 "http://www.w3.org/TR/2001/REC-SVG-20010904/DTD/svg10.dtd">
<svg version="1.0" xmlns="http://www.w3.org/2000/svg"
 width="556.000000pt" height="1028.000000pt" viewBox="0 0 556.000000 1028.000000"
 preserveAspectRatio="xMidYMid meet">
<metadata>
Created by potrace 1.16, written by Peter Selinger 2001-2019
</metadata>
<g transform="translate(0.000000,1028.000000) scale(0.100000,-0.100000)"
fill="#000000" stroke="none">
<path d="M563 10251 c-290 -101 -492 -332 -549 -629 -21 -111 -21 -8853 0
-8964 58 -299 266 -535 558 -632 l77 -26 2136 0 2136 0 77 26 c247 82 429 258
525 506 l32 83 0 4525 0 4525 -32 83 c-97 250 -292 437 -537 511 l-68 21
-2137 0 -2136 0 -82 -29z m2704 -923 c38 -39 38 -97 0 -136 l-27 -27 -451 0
-451 0 -29 33 c-18 20 -29 43 -29 61 0 32 32 78 64 91 11 5 218 8 458 7 l438
-2 27 -27z m1783 -4243 l0 -3445 -2265 0 -2265 0 0 3445 0 3445 2265 0 2265 0
0 -3445z m-2229 -3795 c132 -25 242 -112 302 -238 29 -61 32 -76 32 -162 0
-86 -3 -101 -32 -162 -61 -130 -172 -215 -311 -239 -163 -29 -346 70 -425 230
-30 61 -32 72 -32 171 0 98 2 109 32 171 55 113 174 204 295 228 61 12 78 12
139 1z"/>
</g>
</svg>
